<svg xmlns="http://www.w3.org/2000/svg" viewBox="0 0 126.29 42.27"><defs><style>.cls-1{fill:#323333;}</style></defs><title>アセット 1</title><g id="レイヤー_2" data-name="レイヤー 2"><g id="罫線など"><path class="cls-1" d="M28.9.2l.37,13.4H27.88a13.26,13.26,0,0,0-4.81-8.11,13,13,0,0,0-8.28-3.07A8.46,8.46,0,0,0,9.33,4a4.71,4.71,0,0,0-2,3.72A4.11,4.11,0,0,0,8,10.13a11,11,0,0,0,3.14,2.76,74.63,74.63,0,0,0,7.33,3.47c5.35,2.31,9,4.49,10.83,6.55A10.26,10.26,0,0,1,32.1,30a10.86,10.86,0,0,1-4.47,8.67,17.44,17.44,0,0,1-11.36,3.63,20.47,20.47,0,0,1-4.08-.39,31.51,31.51,0,0,1-4.83-1.45,8.27,8.27,0,0,0-2.67-.59,3.64,3.64,0,0,0-1.85.59,4.23,4.23,0,0,0-1.59,1.81H0V27.06H1.25A16.84,16.84,0,0,0,7,36.83,14.42,14.42,0,0,0,16.1,40.2a9.38,9.38,0,0,0,6-1.81,5.33,5.33,0,0,0,2.24-4.21,5.06,5.06,0,0,0-.86-2.76,9.47,9.47,0,0,0-2.61-2.54,41.13,41.13,0,0,0-6.22-3.12,55.24,55.24,0,0,1-9-4.6A14.73,14.73,0,0,1,1.5,16.92,9.51,9.51,0,0,1,0,11.76a10.33,10.33,0,0,1,4-8.18A15.17,15.17,0,0,1,14.18.2,19.32,19.32,0,0,1,18.5.67,23.94,23.94,0,0,1,22.36,2a9.86,9.86,0,0,0,3.19,1,1.94,1.94,0,0,0,1.39-.48A5.2,5.2,0,0,0,27.88.2Z"/><path class="cls-1" d="M50.41,37.23q-5.62,4.49-10.12,4.48a6.32,6.32,0,0,1-4.38-1.56,5,5,0,0,1-1.75-3.9,7.36,7.36,0,0,1,3-5.7q3-2.55,13.22-6.75V21a12,12,0,0,0-.38-4,3.36,3.36,0,0,0-1.43-1.42A4.62,4.62,0,0,0,46.23,15a6.62,6.62,0,0,0-3.53.86,1.51,1.51,0,0,0-.86,1.25,2.53,2.53,0,0,0,.92,1.54A3.62,3.62,0,0,1,44,21.13a3.14,3.14,0,0,1-1.21,2.48,4.7,4.7,0,0,1-3.15,1,5.36,5.36,0,0,1-3.47-1.13,3.3,3.3,0,0,1-1.4-2.64,5.82,5.82,0,0,1,1.87-4.07,12.05,12.05,0,0,1,5.25-3,23.61,23.61,0,0,1,7-1,12.61,12.61,0,0,1,6.94,1.67,8.11,8.11,0,0,1,3.31,3.64,21.11,21.11,0,0,1,.46,5.72V34.56A9.44,9.44,0,0,0,59.78,37a1.41,1.41,0,0,0,.49.73,1.24,1.24,0,0,0,.76.23,2.41,2.41,0,0,0,1.75-1.09l1,.71a11.38,11.38,0,0,1-3.41,3.18,7.92,7.92,0,0,1-4,1,6.73,6.73,0,0,1-4.12-1.11A4.89,4.89,0,0,1,50.41,37.23Zm0-2.16V25.79a18.83,18.83,0,0,0-5.93,4.5,5.16,5.16,0,0,0-1.29,3.24,3.26,3.26,0,0,0,1.09,2.4,3.19,3.19,0,0,0,2.31.8A6.7,6.7,0,0,0,50.41,35.07Z"/><path class="cls-1" d="M75.67,1.12V35.57c0,2,.23,3.21.7,3.75a3.79,3.79,0,0,0,2.73.94v1.06H63.76V40.26a3.77,3.77,0,0,0,2.8-1.07c.4-.46.6-1.66.6-3.62V6.87q0-2.91-.69-3.72a3.79,3.79,0,0,0-2.71-.94V1.12Z"/><path class="cls-1" d="M112.14,13.6v6.28a21.24,21.24,0,0,1,5.48-5.7,8.84,8.84,0,0,1,4.54-1.41,4.32,4.32,0,0,1,3,1,3.72,3.72,0,0,1,1.12,2.89,4.18,4.18,0,0,1-1.09,3.09,3.59,3.59,0,0,1-2.64,1.09,4.91,4.91,0,0,1-3.09-1,17.52,17.52,0,0,0-1.55-1.13,1.59,1.59,0,0,0-.77-.18,3.07,3.07,0,0,0-1.85.65,6.11,6.11,0,0,0-2.09,2.88,18.14,18.14,0,0,0-1.07,6.34V34.8l0,1.66a5.89,5.89,0,0,0,.24,2.16,2.44,2.44,0,0,0,1.19,1.18,7.89,7.89,0,0,0,2.67.46v1.06h-17V40.26a3.92,3.92,0,0,0,2.77-1c.49-.56.73-2,.73-4.46V19.47a10.09,10.09,0,0,0-.27-3,2.43,2.43,0,0,0-1-1.22,5.47,5.47,0,0,0-2.25-.53V13.6Z"/><path class="cls-1" d="M92.91,13.6v22c0,2,.24,3.21.7,3.75a3.83,3.83,0,0,0,2.73.94v1.06H81V40.26a3.73,3.73,0,0,0,2.79-1.07c.41-.46.61-1.66.61-3.62V19.38c0-2-.23-3.21-.7-3.75A3.79,3.79,0,0,0,81,14.7V13.6Z"/><path class="cls-1" d="M94.32,4.6a1.66,1.66,0,0,0-1-.76,2.75,2.75,0,0,0-2,.47,7.09,7.09,0,0,1-1.09.59,4.75,4.75,0,0,1-.59.14,3.79,3.79,0,0,1,.28-.57,5.69,5.69,0,0,1,.78-.93,3.22,3.22,0,0,0,.81-1.28,1.77,1.77,0,0,0-.14-1.4,1.65,1.65,0,0,0-1-.81,1.67,1.67,0,0,0-1.3.23,1.84,1.84,0,0,0-.84,1.1,3.29,3.29,0,0,0,.08,1.49,6.8,6.8,0,0,1,.2,1.26,3.39,3.39,0,0,1,0,.58,3.53,3.53,0,0,1-.43-.41,11.72,11.72,0,0,1-.69-1.14,2.51,2.51,0,0,0-1.55-1.31A1.7,1.7,0,0,0,84.35,2a1.57,1.57,0,0,0-.52,2.31,2.09,2.09,0,0,0,1.27.84c.19,0,.55.13,1.07.23.22,0,.44.1.67.16l.67.2-.4.18a9.49,9.49,0,0,1-1.22.35,3.59,3.59,0,0,0-1.42.6,1.88,1.88,0,0,0-.64,1A1.42,1.42,0,0,0,84,9a1.65,1.65,0,0,0,1,.73,1.78,1.78,0,0,0,1.36-.2A3.25,3.25,0,0,0,87.52,8,5.59,5.59,0,0,1,88,7.07a4,4,0,0,1,.43-.48,3.54,3.54,0,0,1,.11.58,6,6,0,0,1-.07,1.08,3.18,3.18,0,0,0,.21,1.95,1.74,1.74,0,0,0,1.07.86,1.65,1.65,0,0,0,.43.06,1.61,1.61,0,0,0,.82-.23,1.59,1.59,0,0,0,.77-1,1.62,1.62,0,0,0,0-1.07,3.68,3.68,0,0,0-1-1.21,7.08,7.08,0,0,1-.87-.85,4.42,4.42,0,0,1-.3-.47l.8.19.66.19L92,7a2.28,2.28,0,0,0,1.58-.11,1.67,1.67,0,0,0,.91-1A1.49,1.49,0,0,0,94.32,4.6Z"/></g></g></svg>