<?xml version="1.0" encoding="iso-8859-1"?>
<!-- Generator: Adobe Illustrator 22.0.1, SVG Export Plug-In . SVG Version: 6.00 Build 0)  -->
<svg version="1.1" id="&#x30EC;&#x30A4;&#x30E4;&#x30FC;_1"
	 xmlns="http://www.w3.org/2000/svg" xmlns:xlink="http://www.w3.org/1999/xlink" x="0px" y="0px" viewBox="0 0 295 165"
	 style="enable-background:new 0 0 295 165;" xml:space="preserve">
<g>
	<rect style="fill:#545454;" width="295" height="166.197"/>
	<g>
		<rect style="fill:#545454;" width="36.702" height="96.948"/>
		<rect x="258.298" style="fill:#545454;" width="36.702" height="96.948"/>
		<rect x="36.702" style="fill:#D4D4D4;" width="31.657" height="96.948"/>
		<rect x="68.358" style="fill:#CED95F;" width="31.657" height="96.948"/>
		<rect x="100.015" style="fill:#61D9CF;" width="31.657" height="96.948"/>
		<rect x="131.672" style="fill:#20EA40;" width="31.657" height="96.948"/>
		<rect x="163.328" style="fill:#CC42D6;" width="31.657" height="96.948"/>
		<rect x="194.985" style="fill:#C20D06;" width="31.657" height="96.948"/>
		<rect x="226.642" style="fill:#1840BA;" width="31.657" height="96.948"/>
		<rect y="96.948" style="fill:#87FEFC;" width="36.702" height="14.542"/>
		<rect y="111.491" style="fill:#CFD95F;" width="36.702" height="14.542"/>
		<rect x="258.298" y="96.948" style="fill:#4D69E7;" width="36.702" height="14.542"/>
		<rect x="258.298" y="111.491" style="fill:#C00E0A;" width="36.702" height="14.542"/>
		<rect x="36.702" y="96.948" style="fill:#D4D4D4;" width="221.596" height="14.542"/>
		<linearGradient id="SVGID_1_" gradientUnits="userSpaceOnUse" x1="36.7019" y1="118.7617" x2="258.2981" y2="118.7617">
			<stop  offset="0.188" style="stop-color:#000000"/>
			<stop  offset="1" style="stop-color:#FFFFFF"/>
		</linearGradient>
		<rect x="36.702" y="111.491" style="fill:url(#SVGID_1_);" width="221.596" height="14.542"/>
		<rect y="126.033" style="fill:#545454;" width="36.702" height="40.164"/>
		<rect x="258.298" y="126.033" style="fill:#535456;" width="36.702" height="40.164"/>
		<rect x="36.702" y="126.033" style="fill:#0C0C0C;" width="47.485" height="40.164"/>
		<rect x="84.187" y="126.033" style="fill:#F4F4F4;" width="63.313" height="40.164"/>
		<rect x="147.5" y="126.033" style="fill:#0B0D0A;" width="26.315" height="40.164"/>
		<rect x="173.815" y="126.033" style="fill:#2B2B2B;" width="10.387" height="40.164"/>
		<rect x="184.202" y="126.033" style="fill:#0B0D0A;" width="10.387" height="40.164"/>
		<rect x="194.589" y="126.033" style="fill:#393939;" width="10.387" height="40.164"/>
		<rect x="204.977" y="126.033" style="fill:#0C0C0C;" width="10.387" height="40.164"/>
		<rect x="215.364" y="126.033" style="fill:#535353;" width="10.387" height="40.164"/>
		<rect x="225.751" y="126.033" style="fill:#0C0C0A;" width="32.547" height="40.164"/>
	</g>
</g>
</svg>
